<?xml version="1.0" encoding="UTF-8"?>
<svg id="picto" xmlns="http://www.w3.org/2000/svg" xmlns:xlink="http://www.w3.org/1999/xlink" viewBox="0 0 741.66 741.66">
  <defs>
    <style>
      .cls-1 {
        fill: url(#Dégradé_sans_nom_25);
      }

      .cls-1, .cls-2, .cls-3, .cls-4, .cls-5, .cls-6 {
        stroke-width: 0px;
      }

      .cls-2 {
        fill: url(#Dégradé_sans_nom_42);
      }

      .cls-3 {
        fill: url(#Dégradé_sans_nom_20);
      }

      .cls-4 {
        fill: url(#Dégradé_sans_nom_36);
      }

      .cls-5 {
        fill: url(#Dégradé_sans_nom_43);
      }

      .cls-6 {
        fill: url(#Dégradé_sans_nom_45);
      }
    </style>
    <linearGradient id="Dégradé_sans_nom_20" data-name="Dégradé sans nom 20" x1="562.42" y1="85.15" x2="525.26" y2="388.39" gradientUnits="userSpaceOnUse">
      <stop offset=".33" stop-color="#1eaf00"/>
      <stop offset="1" stop-color="#1e7700"/>
    </linearGradient>
    <linearGradient id="Dégradé_sans_nom_43" data-name="Dégradé sans nom 43" x1="197.7" y1="634.13" x2="293.87" y2="255.65" gradientUnits="userSpaceOnUse">
      <stop offset="0" stop-color="#1e4d00"/>
      <stop offset=".86" stop-color="#1e7700"/>
    </linearGradient>
    <linearGradient id="Dégradé_sans_nom_25" data-name="Dégradé sans nom 25" x1="386.27" y1="298.17" x2="367.48" y2="119.46" gradientUnits="userSpaceOnUse">
      <stop offset="0" stop-color="#8fdb14"/>
      <stop offset="1" stop-color="#1e7700"/>
    </linearGradient>
    <linearGradient id="Dégradé_sans_nom_42" data-name="Dégradé sans nom 42" x1="297.96" y1="622.4" x2="600.04" y2="368.38" gradientUnits="userSpaceOnUse">
      <stop offset="0" stop-color="#1e4d00"/>
      <stop offset="1" stop-color="#1e7700"/>
    </linearGradient>
    <linearGradient id="Dégradé_sans_nom_45" data-name="Dégradé sans nom 45" x1="163.21" y1="197.71" x2="163.21" y2="577.32" gradientUnits="userSpaceOnUse">
      <stop offset="0" stop-color="#f1db34"/>
      <stop offset=".15" stop-color="#e9db31"/>
      <stop offset=".38" stop-color="#d5db2a"/>
      <stop offset=".65" stop-color="#b3db1f"/>
      <stop offset=".9" stop-color="#8fdb14"/>
    </linearGradient>
    <linearGradient id="Dégradé_sans_nom_36" data-name="Dégradé sans nom 36" x1="163.7" y1="489.49" x2="168.73" y2="355.65" gradientUnits="userSpaceOnUse">
      <stop offset="0" stop-color="#8fdb14"/>
      <stop offset="1" stop-color="#f1e536"/>
    </linearGradient>
  </defs>
  <g id="DV">
    <path class="cls-3" d="M510.71,176.3c20.28,39.43,31.73,84.14,31.73,131.53,0,43.12-9.49,84.02-26.47,120.74,4.92,1.77,9.79,3.7,14.65,5.79,11.08,4.22,22.58,7.26,33.76,11.21,6.63,2.34,13.14,4.86,19.43,7.75,19.68-44.49,30.63-93.71,30.63-145.49,0-84.58-29.17-162.35-78-223.79l-37.51,37.51-25.94,23.78s1.24.3,3.34,1.02c14.9,5.12,27.17,15.94,34.38,29.95Z"/>
    <path class="cls-5" d="M314.45,589.55c-7.89,1.67-15.89,3.03-24,4.04V149.85c12.57,2.85,24.58,7.17,35.85,12.76-4.75-25.56,2.91-54.5,17.98-70.9-27.66-11.51-58-17.88-89.83-17.88-12.24,0-24.27.94-36,2.75v462.5s0,0,0,0v126.97s15.15,1.78,36,1.78c.47,0,.9,0,1.29,0,20.02-.07,34.71-1.77,34.71-1.77v-.03c6.98-.69,13.89-1.59,20.75-2.67-13.3-21.71-6.41-58.98,3.26-73.8Z"/>
    <path class="cls-1" d="M322.03,160.57c55.72,25.61,94.42,81.91,94.42,147.26,0,70.42-44.94,130.34-107.7,152.66v75c103.05-24.49,179.7-117.12,179.7-227.66,0-99.18-61.71-183.95-148.83-218.01-33.04,5.7-43.25,51.14-17.59,70.75Z"/>
    <path class="cls-2" d="M530.24,391.06c-32.36,107.37-125.72,188.3-239.79,202.53v-26.01c-33.4,15.85-51.02,10.75-72,2.5v95.98s15.15,1.78,36,1.78c.47,0,.9,0,1.29,0,20.02-.07,34.71-1.77,34.71-1.77v-.03c146.69-14.57,267.49-117.18,308.76-254.24,6.41-21.28-7.82-43.23-29.85-46.09h0c-17.5-2.27-34.03,8.48-39.12,25.37Z"/>
    <path id="D-vBar" class="cls-6" d="M127.21,81.83v463.77s15.15,1.78,36,1.78c.47,0,.89,0,1.29,0,20.02-.07,34.71-1.77,34.71-1.77V77.83l-72,4Z"/>
    <path class="cls-4" d="M127.21,459.16v86.44s15.15,1.78,36,1.78c.47,0,.89,0,1.29,0,20.02-.07,34.71-1.77,34.71-1.77v-73.46c-23.53,18.21-65.06,4.14-72-12.98Z"/>
  </g>
</svg>